<svg width="51" height="47" viewBox="0 0 51 47" fill="none" xmlns="http://www.w3.org/2000/svg">
<g clip-path="url(#clip0_414_3)">
<rect width="47" height="51" transform="matrix(0 -1 1 0 0 47)" fill="white"/>
<path d="M13.3767 8.666C15.4541 8.666 17.5441 8.69133 19.6467 8.742C21.7494 8.76733 23.6621 8.894 25.3847 9.122L24.7007 13.264H15.4287C14.6181 13.264 14.0227 13.416 13.6427 13.72C13.2627 13.9987 13.0221 14.5307 12.9207 15.316L10.1467 35H4.33273L7.25873 13.91C7.51206 12.2633 8.18339 10.984 9.27273 10.072C10.3621 9.13467 11.7301 8.666 13.3767 8.666ZM7.10673 19.838H22.3447L21.8127 23.866H6.53673L7.10673 19.838ZM33.0895 8.78L37.4215 22.08L29.4035 35H23.0955L31.9115 21.548L27.3895 8.78H33.0895ZM39.8915 19.686L39.3975 23.258H33.4315L33.9255 19.686H39.8915ZM49.9615 8.78L41.7155 21.548L46.6935 35H40.9175L36.3195 20.902L43.9195 8.78H49.9615Z" fill="#222222"/>
</g>
<defs>
<clipPath id="clip0_414_3">
<rect width="47" height="51" fill="white" transform="matrix(0 -1 1 0 0 47)"/>
</clipPath>
</defs>
</svg>
