<svg width="389" height="141" viewBox="0 0 389 141" fill="none" xmlns="http://www.w3.org/2000/svg">
<g clip-path="url(#clip0_404_5)">
<rect width="141" height="389" transform="matrix(0 -1 1 0 0 141)" fill="white"/>
<path d="M21.3823 72V28.8H61.0423V36.06H28.6423V46.8H54.7423V54H28.6423V72H21.3823ZM72.4217 72C70.9417 72 69.5817 71.64 68.3417 70.92C67.1417 70.16 66.1817 69.18 65.4617 67.98C64.7417 66.78 64.3817 65.44 64.3817 63.96V51H92.5817V45.48C92.5817 45.16 92.4617 44.9 92.2217 44.7C92.0217 44.46 91.7617 44.34 91.4417 44.34H64.3817V37.2H91.6817C93.2017 37.2 94.5617 37.58 95.7617 38.34C96.9617 39.06 97.9217 40.02 98.6417 41.22C99.3617 42.42 99.7217 43.76 99.7217 45.24V72H72.4217ZM72.6617 64.86H92.5817V57.54H71.5217V63.72C71.5217 64.04 71.6217 64.32 71.8217 64.56C72.0617 64.76 72.3417 64.86 72.6617 64.86ZM105.046 72V45.24C105.046 43.76 105.406 42.42 106.126 41.22C106.886 40.02 107.866 39.06 109.066 38.34C110.306 37.58 111.646 37.2 113.086 37.2H132.466V44.34H113.326C113.006 44.34 112.726 44.46 112.486 44.7C112.286 44.9 112.186 45.16 112.186 45.48V72H105.046ZM144.844 72C143.364 72 142.004 71.64 140.764 70.92C139.564 70.16 138.604 69.18 137.884 67.98C137.164 66.78 136.804 65.44 136.804 63.96V51H165.004V45.48C165.004 45.16 164.884 44.9 164.644 44.7C164.444 44.46 164.184 44.34 163.864 44.34H136.804V37.2H164.104C165.624 37.2 166.984 37.58 168.184 38.34C169.384 39.06 170.344 40.02 171.064 41.22C171.784 42.42 172.144 43.76 172.144 45.24V72H144.844ZM145.084 64.86H165.004V57.54H143.944V63.72C143.944 64.04 144.044 64.32 144.244 64.56C144.484 64.76 144.764 64.86 145.084 64.86ZM184.764 72C183.284 72 181.924 71.64 180.684 70.92C179.484 70.16 178.524 69.18 177.804 67.98C177.084 66.78 176.724 65.44 176.724 63.96V45.24C176.724 43.76 177.084 42.42 177.804 41.22C178.524 40.02 179.484 39.06 180.684 38.34C181.924 37.58 183.284 37.2 184.764 37.2H204.984V25.8H212.124V72H184.764ZM185.064 64.86H203.844C204.164 64.86 204.424 64.76 204.624 64.56C204.864 64.32 204.984 64.04 204.984 63.72V45.48C204.984 45.16 204.864 44.9 204.624 44.7C204.424 44.46 204.164 44.34 203.844 44.34H185.064C184.744 44.34 184.464 44.46 184.224 44.7C184.024 44.9 183.924 45.16 183.924 45.48V63.72C183.924 64.04 184.024 64.32 184.224 64.56C184.464 64.76 184.744 64.86 185.064 64.86ZM226.523 72C225.043 72 223.683 71.64 222.443 70.92C221.243 70.16 220.283 69.18 219.563 67.98C218.843 66.78 218.483 65.44 218.483 63.96V51H246.683V45.48C246.683 45.16 246.563 44.9 246.323 44.7C246.123 44.46 245.863 44.34 245.543 44.34H218.483V37.2H245.783C247.303 37.2 248.663 37.58 249.863 38.34C251.063 39.06 252.023 40.02 252.743 41.22C253.463 42.42 253.823 43.76 253.823 45.24V72H226.523ZM226.763 64.86H246.683V57.54H225.623V63.72C225.623 64.04 225.723 64.32 225.923 64.56C226.163 64.76 226.443 64.86 226.763 64.86ZM265.483 85.08V77.88H286.663C286.943 77.88 287.183 77.76 287.383 77.52C287.623 77.32 287.743 77.08 287.743 76.8V72H267.583C266.143 72 264.803 71.64 263.563 70.92C262.363 70.16 261.383 69.18 260.623 67.98C259.903 66.78 259.543 65.44 259.543 63.96V37.32H266.683V63.72C266.683 64.04 266.783 64.32 266.983 64.56C267.223 64.76 267.503 64.86 267.823 64.86H286.663C286.943 64.86 287.183 64.76 287.383 64.56C287.623 64.32 287.743 64.04 287.743 63.72V37.32H294.883V77.04C294.883 78.56 294.523 79.92 293.803 81.12C293.123 82.32 292.163 83.28 290.923 84C289.723 84.72 288.383 85.08 286.903 85.08H265.483Z" fill="#2A5CFF"/>
<path d="M347.599 34.77L335.941 57.148L348.537 81H339.76L327.767 57.148L338.956 34.77H347.599ZM318.052 34.77L329.241 57.148L317.248 81H308.471L321.067 57.148L309.409 34.77H318.052ZM332.859 54.334V59.895H323.747V54.334H332.859Z" fill="#222222"/>
<rect x="18" y="89" width="347" height="23" fill="black"/>
<path d="M35.6944 107.144C34.7344 107.144 33.8811 106.963 33.1344 106.6C32.3984 106.227 31.8224 105.667 31.4064 104.92C30.9904 104.163 30.7824 103.213 30.7824 102.072C30.7824 101.155 30.9157 100.301 31.1824 99.512C31.4491 98.7227 31.8331 98.0347 32.3344 97.448C32.8464 96.8613 33.4651 96.4027 34.1904 96.072C34.9264 95.7413 35.7531 95.576 36.6704 95.576C37.4491 95.576 38.1584 95.704 38.7984 95.96C39.4491 96.2053 39.9771 96.5467 40.3824 96.984L39.7264 98.184C39.2997 97.7573 38.8304 97.4427 38.3184 97.24C37.8171 97.0267 37.2517 96.92 36.6224 96.92C35.7264 96.92 34.9584 97.144 34.3184 97.592C33.6891 98.0293 33.2037 98.6373 32.8624 99.416C32.5317 100.184 32.3664 101.059 32.3664 102.04C32.3664 102.936 32.4997 103.661 32.7664 104.216C33.0437 104.771 33.4384 105.176 33.9504 105.432C34.4731 105.677 35.1024 105.8 35.8384 105.8C36.4037 105.8 36.9317 105.704 37.4224 105.512C37.9237 105.32 38.4304 105.011 38.9424 104.584L39.4544 105.752C39.1237 106.051 38.7557 106.307 38.3504 106.52C37.9557 106.723 37.5344 106.877 37.0864 106.984C36.6384 107.091 36.1744 107.144 35.6944 107.144ZM51.0599 107.144C50.0999 107.144 49.2626 106.957 48.5479 106.584C47.8439 106.211 47.2946 105.661 46.8999 104.936C46.5159 104.2 46.3239 103.315 46.3239 102.28C46.3239 101.331 46.4519 100.451 46.7079 99.64C46.9639 98.8187 47.3372 98.104 47.8279 97.496C48.3292 96.888 48.9319 96.4187 49.6359 96.088C50.3506 95.7467 51.1666 95.576 52.0839 95.576C53.0439 95.576 53.8759 95.7627 54.5799 96.136C55.2946 96.5093 55.8439 97.0587 56.2279 97.784C56.6226 98.5093 56.8199 99.3893 56.8199 100.424C56.8199 101.384 56.6919 102.275 56.4359 103.096C56.1799 103.907 55.8012 104.616 55.2999 105.224C54.8092 105.832 54.2066 106.307 53.4919 106.648C52.7879 106.979 51.9772 107.144 51.0599 107.144ZM51.0919 105.832C51.9986 105.832 52.7559 105.597 53.3639 105.128C53.9826 104.659 54.4519 104.019 54.7719 103.208C55.1026 102.397 55.2679 101.475 55.2679 100.44C55.2679 99.2453 54.9799 98.3547 54.4039 97.768C53.8386 97.1813 53.0492 96.888 52.0359 96.888C51.1399 96.888 50.3826 97.1227 49.7639 97.592C49.1559 98.0507 48.6866 98.6853 48.3559 99.496C48.0359 100.307 47.8759 101.229 47.8759 102.264C47.8759 103.469 48.1639 104.365 48.7399 104.952C49.3159 105.539 50.0999 105.832 51.0919 105.832ZM63.3557 107L65.1477 95.72H66.3477L69.4677 104.152H69.0037L74.8277 95.72H76.1077L74.3157 107H72.9557L74.4277 97.736H74.8117L69.5957 105.272H68.6677L65.8357 97.768H66.1717L64.7157 107H63.3557ZM82.178 107L83.97 95.72H88.114C88.9034 95.72 89.57 95.8373 90.114 96.072C90.658 96.296 91.0687 96.6373 91.346 97.096C91.634 97.544 91.778 98.104 91.778 98.776C91.778 99.5547 91.6127 100.227 91.282 100.792C90.962 101.357 90.482 101.795 89.842 102.104C89.2127 102.403 88.434 102.552 87.506 102.552H84.37L83.666 107H82.178ZM84.562 101.352H87.602C88.4874 101.352 89.1594 101.144 89.618 100.728C90.0874 100.301 90.322 99.6827 90.322 98.872C90.322 98.2 90.1247 97.7093 89.73 97.4C89.3354 97.0907 88.7487 96.936 87.97 96.936H85.266L84.562 101.352ZM102.142 107.144C101.427 107.144 100.792 107.043 100.238 106.84C99.6935 106.637 99.2402 106.333 98.8775 105.928C98.5255 105.512 98.2855 104.995 98.1575 104.376C98.0295 103.757 98.0349 103.037 98.1735 102.216L99.1975 95.72H100.686L99.6295 102.344C99.4482 103.496 99.5762 104.365 100.014 104.952C100.451 105.539 101.187 105.832 102.222 105.832C103.235 105.832 104.03 105.576 104.606 105.064C105.182 104.552 105.56 103.736 105.742 102.616L106.83 95.72H108.318L107.214 102.648C107.064 103.64 106.782 104.472 106.366 105.144C105.96 105.805 105.406 106.307 104.702 106.648C104.008 106.979 103.155 107.144 102.142 107.144ZM117.045 107L118.645 96.984H114.597L114.789 95.72H124.373L124.181 96.984H120.133L118.533 107H117.045ZM126.777 107L133.577 95.72H134.841L138.041 107H136.601L135.769 103.864L136.297 104.184H129.529L130.217 103.896L128.393 107H126.777ZM134.009 97.4L130.601 103.224L130.249 102.968H135.977L135.593 103.24L134.041 97.4H134.009ZM146.269 107L147.869 96.984H143.821L144.013 95.72H153.597L153.405 96.984H149.357L147.757 107H146.269ZM158.356 107L160.148 95.72H161.636L159.844 107H158.356ZM172.864 107.144C171.904 107.144 171.066 106.957 170.352 106.584C169.648 106.211 169.098 105.661 168.704 104.936C168.32 104.2 168.128 103.315 168.128 102.28C168.128 101.331 168.256 100.451 168.512 99.64C168.768 98.8187 169.141 98.104 169.632 97.496C170.133 96.888 170.736 96.4187 171.44 96.088C172.154 95.7467 172.97 95.576 173.888 95.576C174.848 95.576 175.68 95.7627 176.384 96.136C177.098 96.5093 177.648 97.0587 178.032 97.784C178.426 98.5093 178.624 99.3893 178.624 100.424C178.624 101.384 178.496 102.275 178.24 103.096C177.984 103.907 177.605 104.616 177.104 105.224C176.613 105.832 176.01 106.307 175.296 106.648C174.592 106.979 173.781 107.144 172.864 107.144ZM172.896 105.832C173.802 105.832 174.56 105.597 175.168 105.128C175.786 104.659 176.256 104.019 176.576 103.208C176.906 102.397 177.072 101.475 177.072 100.44C177.072 99.2453 176.784 98.3547 176.208 97.768C175.642 97.1813 174.853 96.888 173.84 96.888C172.944 96.888 172.186 97.1227 171.568 97.592C170.96 98.0507 170.49 98.6853 170.16 99.496C169.84 100.307 169.68 101.229 169.68 102.264C169.68 103.469 169.968 104.365 170.544 104.952C171.12 105.539 171.904 105.832 172.896 105.832ZM185.127 107L186.919 95.72H188.055L193.543 105.16H193.191L194.679 95.72H196.055L194.263 107H193.143L187.655 97.56H188.007L186.503 107H185.127ZM211.415 107L213.207 95.72H214.407L217.527 104.152H217.063L222.887 95.72H224.167L222.375 107H221.015L222.487 97.736H222.871L217.655 105.272H216.727L213.895 97.768H214.231L212.775 107H211.415ZM229.117 107L235.917 95.72H237.181L240.381 107H238.941L238.109 103.864L238.637 104.184H231.869L232.557 103.896L230.733 107H229.117ZM236.349 97.4L232.941 103.224L232.589 102.968H238.317L237.933 103.24L236.381 97.4H236.349ZM248.609 107L250.209 96.984H246.161L246.353 95.72H255.937L255.745 96.984H251.697L250.097 107H248.609ZM263.636 107L265.236 96.984H261.188L261.38 95.72H270.964L270.772 96.984H266.724L265.124 107H263.636ZM275.738 107L277.514 95.72H284.73L284.538 96.936H278.762L278.17 100.664H283.61L283.418 101.88H277.978L277.354 105.784H283.13L282.938 107H275.738ZM290.217 107L292.009 95.72H296.121C296.943 95.72 297.625 95.8427 298.169 96.088C298.713 96.3333 299.124 96.6853 299.401 97.144C299.679 97.6027 299.817 98.1467 299.817 98.776C299.817 99.5547 299.636 100.205 299.273 100.728C298.911 101.24 298.415 101.624 297.785 101.88C297.167 102.136 296.463 102.253 295.673 102.232V102.024H295.961C296.431 102.024 296.815 102.163 297.113 102.44C297.423 102.707 297.673 103.085 297.865 103.576L299.177 107H297.673L296.345 103.512C296.228 103.213 296.095 102.979 295.945 102.808C295.796 102.627 295.604 102.499 295.369 102.424C295.145 102.339 294.863 102.296 294.521 102.296H292.457L291.721 107H290.217ZM292.633 101.144H295.737C296.559 101.144 297.199 100.947 297.657 100.552C298.127 100.157 298.361 99.5973 298.361 98.872C298.361 98.232 298.164 97.752 297.769 97.432C297.385 97.1013 296.777 96.936 295.945 96.936H293.305L292.633 101.144ZM310.119 107.144C309.575 107.144 309.042 107.096 308.519 107C307.997 106.915 307.501 106.771 307.031 106.568C306.573 106.365 306.157 106.099 305.783 105.768L306.375 104.648C306.77 104.947 307.17 105.187 307.575 105.368C307.991 105.549 308.418 105.677 308.855 105.752C309.303 105.827 309.767 105.864 310.247 105.864C310.802 105.864 311.282 105.789 311.687 105.64C312.103 105.48 312.423 105.256 312.647 104.968C312.882 104.68 312.999 104.344 312.999 103.96C312.999 103.683 312.935 103.432 312.807 103.208C312.679 102.984 312.471 102.792 312.183 102.632C311.895 102.461 311.501 102.323 310.999 102.216L309.319 101.816C308.573 101.635 307.975 101.32 307.527 100.872C307.079 100.424 306.855 99.7947 306.855 98.984C306.855 98.4613 306.962 97.992 307.175 97.576C307.399 97.1493 307.709 96.7867 308.103 96.488C308.498 96.1893 308.951 95.9653 309.463 95.816C309.986 95.656 310.541 95.576 311.127 95.576C311.842 95.576 312.546 95.688 313.239 95.912C313.943 96.1253 314.546 96.4827 315.047 96.984L314.455 98.088C313.975 97.6507 313.442 97.336 312.855 97.144C312.279 96.952 311.693 96.856 311.095 96.856C310.562 96.856 310.087 96.9413 309.671 97.112C309.255 97.2827 308.93 97.5173 308.695 97.816C308.461 98.1147 308.343 98.472 308.343 98.888C308.343 99.4 308.471 99.7787 308.727 100.024C308.994 100.269 309.389 100.456 309.911 100.584L311.575 101C312.578 101.213 313.314 101.56 313.783 102.04C314.253 102.52 314.487 103.101 314.487 103.784C314.487 104.339 314.37 104.824 314.135 105.24C313.911 105.656 313.597 106.008 313.191 106.296C312.797 106.573 312.333 106.787 311.799 106.936C311.277 107.075 310.717 107.144 310.119 107.144Z" fill="white"/>
</g>
<defs>
<clipPath id="clip0_404_5">
<rect width="141" height="389" fill="white" transform="matrix(0 -1 1 0 0 141)"/>
</clipPath>
</defs>
</svg>
